<?xml version="1.0" encoding="UTF-8"?>
<svg width="436px" height="917px" viewBox="0 0 436 917" version="1.1" xmlns="http://www.w3.org/2000/svg" xmlns:xlink="http://www.w3.org/1999/xlink">
    <!-- Generator: Sketch 64 (93537) - https://sketch.com -->
    <title>S10+ Copy 2</title>
    <desc>Created with Sketch.</desc>
    <g id="S10+-Copy-2" stroke="none" stroke-width="1" fill="none" fill-rule="evenodd">
        <g id="S10+">
            <path d="M434.5,154 C435.328427,154 436,154.671573 436,155.5 L436,207.5 C436,208.328427 435.328427,209 434.5,209 C433.671573,209 433,208.328427 433,207.5 L433,155.5 C433,154.671573 433.671573,154 434.5,154 Z" id="lock" fill="#7C7B80"></path>
            <path d="M1.5,159 C2.32842712,159 3,159.671573 3,160.5 L3,273.5 C3,274.328427 2.32842712,275 1.5,275 C0.671572875,275 0,274.328427 0,273.5 L0,160.5 C0,159.671573 0.671572875,159 1.5,159 Z" id="volume" fill="#7C7B80"></path>
            <path d="M1.5,329 C2.32842712,329 3,329.671573 3,330.5 L3,384.5 C3,385.328427 2.32842712,386 1.5,386 C0.671572875,386 0,385.328427 0,384.5 L0,330.5 C0,329.671573 0.671572875,329 1.5,329 Z" id="button" fill="#7C7B80"></path>
            <path d="M389.018568,0 C427.179585,0 434,15.988466 434,44.879052 L434,871.120948 C434,898.011534 415.965697,917 388.018568,917 L47.981432,917 C20.034303,917 2,898.011534 2,871.120948 L2,44.879052 C2,15.988466 9.519568,0 46.981432,0 L389.018568,0 Z M394,20 L42,20 C25.4314575,20 12,33.4314575 12,50 L12,50 L12,859 C12,875.568542 25.4314575,889 42,889 L42,889 L394,889 C410.568542,889 424,875.568542 424,859 L424,859 L424,50 C424,33.4314575 410.568542,20 394,20 L394,20 Z" id="Combined-Shape" fill="#A5A5A5"></path>
            <path d="M373.135836,5.99151901 C416.035135,5.99151901 431.002505,12.9844633 431.002505,56.8869221 L431.002505,863.828497 L431.002505,863.828497 C431.002505,897.418188 416.072782,909.991519 374.991968,909.991519 L61.2641517,909.991519 C19.9272239,909.991519 5,897.418188 5,863.828497 L5,57.2311367 L5,57.2311367 C5,12.9844633 20.2621382,5.99151901 62.8641694,5.99151901 L373.135836,5.99151901 L373.135836,5.99151901 Z M394,20 L42,20 C25.4314575,20 12,33.4314575 12,50 L12,50 L12,859 C12,875.568542 25.4314575,889 42,889 L42,889 L394,889 C410.568542,889 424,875.568542 424,859 L424,859 L424,50 C424,33.4314575 410.568542,20 394,20 L394,20 Z" id="Combined-Shape" fill="#020203"></path>
            <g id="cam" transform="translate(331.000000, 31.000000)">
                <rect id="Rectangle" fill="#020203" x="0" y="0" width="72" height="31" rx="15.5"></rect>
                <circle id="Oval" fill="#212121" cx="17.5" cy="15.5" r="9.5"></circle>
                <circle id="Oval" fill="#212121" cx="56" cy="15.5" r="8"></circle>
            </g>
            <path d="M183.585149,6 L252.414851,6 C253.589208,6 254.541212,6.95200453 254.541212,8.12636163 C254.541212,8.6293495 254.362907,9.1160523 254.037975,9.5 L252.124494,11.7610144 C251.45948,12.5468115 250.482253,13 249.452825,13 L186.547175,13 C185.517747,13 184.54052,12.5468115 183.875506,11.7610144 L181.962025,9.5 C181.203386,8.60357338 181.315084,7.26187718 182.211511,6.50323766 C182.595459,6.17830543 183.082161,6 183.585149,6 Z" id="speaker" fill="#212121"></path>
        </g>
    </g>
</svg>